<svg width="68" height="67" viewBox="0 0 68 67" fill="none" xmlns="http://www.w3.org/2000/svg">
<path id="Vector" d="M35.7222 9.43648L49.5 23.5174M44.3333 53.4393H65M54.6667 42.8786V64M3 56.9596H16.7778L52.9444 19.9972C53.8491 19.0726 54.5667 17.975 55.0563 16.767C55.5459 15.559 55.7979 14.2642 55.7979 12.9567C55.7979 11.6492 55.5459 10.3544 55.0563 9.14644C54.5667 7.93844 53.8491 6.84082 52.9444 5.91625C52.0398 4.99169 50.9658 4.25828 49.7838 3.75791C48.6018 3.25754 47.3349 3 46.0556 3C44.7762 3 43.5093 3.25754 42.3273 3.75791C41.1453 4.25828 40.0713 4.99169 39.1667 5.91625L3 42.8786V56.9596Z" stroke="#F8F8F8" stroke-width="6" stroke-linecap="round" stroke-linejoin="round"/>
</svg>
